<?xml version="1.0" encoding="UTF-8"?>
<svg id="Warstwa_1" xmlns="http://www.w3.org/2000/svg" version="1.1" viewBox="0 0 160 160">
  <!-- Generator: Adobe Illustrator 29.8.1, SVG Export Plug-In . SVG Version: 2.1.1 Build 2)  -->
  <defs>
    <style>
      .st0 {
        fill: #1d1d1b;
      }

      .st1 {
        fill: none;
        stroke: #1d1d1b;
        stroke-miterlimit: 10;
        stroke-width: .59px;
      }
    </style>
  </defs>
  <path class="st1" d="M59.91,78.49c-10.05,6.87-20.11,13.74-30.16,20.62,12.36-2.81,24.72-5.61,37.08-8.42,9.49,8.08,18.98,16.15,28.47,24.23-15.14-23.99-30.29-47.98-45.43-71.96,10.2,8.79,20.39,17.58,30.59,26.36,12.44-3.71,24.87-7.42,37.31-11.14-11.45,7.35-22.9,14.71-34.35,22.06"/>
  <path class="st1" d="M59.58,80.61c-10.05,6.87-20.11,13.74-30.16,20.62,12.36-2.81,24.72-5.61,37.08-8.42,9.49,8.08,18.98,16.15,28.47,24.23-15.14-23.99-30.29-47.98-45.43-71.96,10.2,8.79,20.39,17.58,30.59,26.36,12.44-3.71,24.87-7.42,37.31-11.14-11.19,7.29-22.37,14.59-33.56,21.88"/>
  <g>
    <path class="st0" d="M22.48,64.27c.1,0,.18.03.25.1.06.07.09.15.09.25s-.03.18-.09.24c-.06.06-.14.09-.25.09h-7.98v11.81h7.98c.1,0,.18.03.25.1.06.07.09.15.09.25s-.03.18-.09.25c-.06.07-.14.1-.25.1h-8.34c-.09,0-.17-.03-.24-.1-.07-.07-.1-.15-.1-.24v-12.51c0-.09.03-.17.1-.24.07-.07.15-.1.24-.1h8.34ZM14.98,71.21c-.09,0-.17-.03-.24-.1-.07-.07-.1-.15-.1-.25s.03-.18.1-.25c.07-.07.15-.1.24-.1h7.51c.1,0,.18.03.25.1.06.07.09.15.09.25s-.03.18-.09.25c-.06.07-.14.1-.25.1h-7.51Z"/>
    <path class="st0" d="M26.5,64.37c.07-.07.15-.1.25-.1s.18.03.25.1c.07.07.1.15.1.24v12.15h7.98c.1,0,.18.03.25.1.06.07.09.15.09.25s-.03.18-.09.25c-.06.07-.14.1-.25.1h-8.34c-.09,0-.17-.03-.23-.09-.06-.06-.1-.13-.11-.21v-12.54c0-.09.03-.17.1-.24Z"/>
    <path class="st0" d="M47.67,64.27c.1,0,.18.03.25.1.06.07.09.15.09.25s-.03.18-.09.24c-.06.06-.14.09-.25.09h-7.98v11.81h7.98c.1,0,.18.03.25.1.06.07.09.15.09.25s-.03.18-.09.25c-.06.07-.14.1-.25.1h-8.34c-.09,0-.17-.03-.24-.1-.07-.07-.1-.15-.1-.24v-12.51c0-.09.03-.17.1-.24.07-.07.15-.1.24-.1h8.34ZM40.16,71.21c-.09,0-.17-.03-.24-.1-.07-.07-.1-.15-.1-.25s.03-.18.1-.25c.07-.07.15-.1.24-.1h7.51c.1,0,.18.03.25.1.06.07.09.15.09.25s-.03.18-.09.25c-.06.07-.14.1-.25.1h-7.51Z"/>
  </g>
  <g>
    <path class="st0" d="M96.54,96.2c0,.09-.03.17-.1.24s-.15.1-.25.1-.18-.03-.25-.1-.1-.15-.1-.24v-12.51c0-.17.08-.28.25-.33.17-.05.29,0,.38.14l8.05,12.07,8.05-12.07c.09-.15.22-.2.38-.14.16.05.25.16.25.33v12.51c0,.09-.03.17-.1.24s-.15.1-.25.1-.18-.03-.25-.1-.1-.15-.1-.24v-11.37l-7.69,11.56c-.07.1-.17.15-.29.15s-.22-.05-.29-.15l-7.69-11.56v11.37Z"/>
    <path class="st0" d="M125.45,83.35c.1,0,.18.03.25.1.06.07.09.15.09.25s-.03.18-.09.24c-.06.06-.14.09-.25.09h-7.98v11.81h7.98c.1,0,.18.03.25.1s.09.15.09.25-.03.18-.09.25c-.06.07-.14.1-.25.1h-8.34c-.09,0-.17-.03-.24-.1s-.1-.15-.1-.24v-12.51c0-.09.03-.17.1-.24s.15-.1.24-.1h8.34ZM117.95,90.29c-.09,0-.17-.03-.24-.1-.07-.07-.1-.15-.1-.25s.03-.18.1-.25c.07-.07.15-.1.24-.1h7.51c.1,0,.18.03.25.1.06.07.09.15.09.25s-.03.18-.09.25c-.06.07-.14.1-.25.1h-7.51Z"/>
    <path class="st0" d="M130.06,96.2c0,.09-.03.17-.1.24s-.15.1-.25.1-.18-.03-.25-.1-.1-.15-.1-.24v-12.51c0-.17.08-.28.25-.33.17-.05.29,0,.38.14l7.71,11.54v-11.35c0-.09.03-.17.1-.24.07-.07.15-.1.25-.1s.18.03.24.1c.06.07.09.15.09.24v12.51c0,.17-.08.28-.25.33-.16.05-.29,0-.38-.14-3.83-5.75-6.4-9.6-7.69-11.56v11.37Z"/>
    <path class="st0" d="M150.64,83.35c.1,0,.18.03.25.1.06.07.09.15.09.25s-.03.18-.09.24c-.06.06-.14.09-.25.09h-3.81v12.17c0,.09-.03.17-.1.24-.07.07-.15.1-.25.1s-.18-.03-.25-.1c-.07-.07-.1-.15-.1-.24v-12.17h-3.83c-.09,0-.17-.03-.24-.09-.07-.06-.1-.14-.1-.24s.03-.18.1-.25.15-.1.24-.1h8.34Z"/>
  </g>
</svg>